<svg width="572" height="94" viewBox="0 0 572 94" fill="none" xmlns="http://www.w3.org/2000/svg">
<g clip-path="url(#clip0_1_84)">
<path d="M110.743 33.4561L96.5661 59.2207H101.656L105.172 52.742H120.461L123.977 59.2207H129.137L114.96 33.4561H110.743ZM107.476 48.4763L112.816 38.6531L118.156 48.4763H107.476Z" fill="#2E6FF2"/>
<path d="M136.02 33.4561H131.481V59.2207H154.504V54.8849H136.02V33.4561Z" fill="#2E6FF2"/>
<path d="M168.691 49.3675H179.651V51.4703C177.688 54.8949 173.309 55.6159 169.963 55.6159C162.76 55.6159 158.792 52.3215 158.792 46.3434C158.792 40.3654 162.69 37.071 169.763 37.071C173.861 37.071 176.836 38.3127 178.88 40.8661L179.361 41.4669L183.258 38.7432L182.667 38.0523C180.593 35.6291 176.676 32.7352 169.763 32.7352C160.155 32.7352 154.184 37.9522 154.184 46.3434C154.184 54.7347 160.195 59.9517 169.863 59.9517C176.345 59.9517 181.795 57.2681 184.11 52.9323L184.21 52.7521V45.0417H168.701V49.3775L168.691 49.3675Z" fill="#2E6FF2"/>
<path d="M202.374 32.7352C192.806 32.7352 186.865 37.9522 186.865 46.3434C186.865 54.7347 192.806 59.9517 202.374 59.9517C211.942 59.9517 217.883 54.7347 217.883 46.3434C217.883 37.9522 211.942 32.7352 202.374 32.7352ZM202.374 55.6159C195.551 55.6159 191.473 52.1512 191.473 46.3434C191.473 40.5356 195.551 37.071 202.374 37.071C209.197 37.071 213.274 40.5356 213.274 46.3434C213.274 52.1512 209.197 55.6159 202.374 55.6159Z" fill="#2E6FF2"/>
<path d="M249.542 41.7172C249.542 36.7005 245.595 33.4561 239.473 33.4561H222.451V59.2207H227.03V49.9883H237.309L245.304 59.2207H251.295L242.819 49.6178C246.997 48.6365 249.532 45.7126 249.532 41.7172H249.542ZM226.99 45.6525V37.792H239.263C241.848 37.792 244.923 38.4729 244.923 41.7272C244.923 44.9816 241.848 45.6625 239.263 45.6625H226.99V45.6525Z" fill="#2E6FF2"/>
<path d="M258.889 33.4561H254.351V59.2207H258.889V33.4561Z" fill="#2E6FF2"/>
<path d="M262.005 37.7219H273.386V59.2207H277.925V37.7219H289.336V33.4561H262.005V37.7219Z" fill="#2E6FF2"/>
<path d="M315.205 43.9703H296.991V33.4561H292.452V59.2207H296.991V48.3662H315.205V59.2207H319.753V33.4561H315.205V43.9703Z" fill="#2E6FF2"/>
<path d="M342.205 47.7253L330.493 33.4561H326.115V59.2207H330.583V40.6358L341.644 54.0238H342.626L353.686 40.6358V59.2207H358.235V33.4561H353.917L342.205 47.7253Z" fill="#2E6FF2"/>
<path d="M399.001 45.7927C400.714 44.6912 401.726 42.7887 401.726 40.4155C401.726 36.1197 398.2 33.4561 392.529 33.4561H375.637V59.2207H393.21C399.492 59.2207 403.099 56.5071 403.099 51.7807C403.099 49.5678 402.307 46.9743 399.001 45.7827V45.7927ZM380.146 37.7219H392.108C396.577 37.7219 397.178 39.294 397.178 40.826C397.178 42.3581 396.577 43.9302 392.108 43.9302H380.146V37.7219ZM392.699 54.955H380.146V48.1959H392.699C397.859 48.1959 398.46 50.1285 398.46 51.5805C398.46 53.0324 397.859 54.965 392.699 54.965V54.955Z" fill="#2E6FF2"/>
<path d="M412.106 48.2961H429.137V43.9703H412.106V37.792H432.203V33.4561H407.557V59.2207H432.544V54.8849H412.106V48.2961Z" fill="#2E6FF2"/>
<path d="M449.345 43.8301C444.346 43.4395 439.867 42.8988 439.867 40.5857C439.867 40.025 440.088 39.5343 440.539 39.0937C441.801 37.832 444.877 37.0209 448.383 37.071C452.281 37.101 455.607 38.2826 457.741 40.3854L458.272 40.9162L461.849 37.8821L461.137 37.2512C457.911 34.3874 453.212 32.7352 448.243 32.7352C440.589 32.7352 435.249 36.0096 435.249 40.6858C435.249 46.4236 442.883 47.7353 448.624 48.226C455.677 48.8268 457.931 49.6479 457.931 51.6105C457.931 54.1139 454.785 55.6159 449.515 55.6159C444.817 55.6159 441.1 54.2641 437.824 51.3802L437.222 50.8495L434.057 54.224L434.698 54.7848C438.485 58.1193 443.685 59.9517 449.345 59.9517C457.36 59.9517 462.55 56.5972 462.55 51.4103C462.55 45.6826 456.208 44.3808 449.345 43.8401V43.8301Z" fill="#2E6FF2"/>
<path d="M462.67 37.7219H474.041V59.2207H478.59V37.7219H490.001V33.4561H462.67V37.7219Z" fill="#2E6FF2"/>
<path d="M515.859 49.698C521.31 47.8054 526.199 45.7026 526.199 40.8561C526.199 35.5389 520.167 32.7652 514.206 32.7652C508.796 32.7652 503.847 35.3387 501.593 39.314L501.212 39.9849L504.739 42.298L505.2 41.6371C507.374 38.4929 510.289 36.9608 514.106 36.9608C517.713 36.9608 521.59 38.1925 521.59 40.8961C521.59 42.9088 518.625 44.1405 513.755 45.9129C506.121 48.7066 501.643 52.4817 500.801 56.9877V59.2207H526.76V55.0251H506.612C507.834 53.1926 510.89 51.4403 515.859 49.698Z" fill="#2E6FF2"/>
<path d="M544.182 32.7352C535.035 32.7352 529.365 37.9522 529.365 46.3434C529.365 54.7347 535.045 59.9517 544.182 59.9517C553.319 59.9517 559 54.7347 559 46.3434C559 37.9522 553.319 32.7352 544.182 32.7352ZM544.182 55.6159C537.6 55.6159 533.973 52.3215 533.973 46.3434C533.973 40.3654 537.6 37.071 544.182 37.071C550.765 37.071 554.391 40.3654 554.391 46.3434C554.391 52.3215 550.765 55.6159 544.182 55.6159Z" fill="#2E6FF2"/>
<path d="M46.5226 76.8845C30.3123 76.8845 17.1177 63.7068 17.1177 47.495C17.1177 31.2832 30.3023 18.1155 46.5226 18.1155C58.9759 18.1155 69.6158 25.906 73.8938 36.8607L76.4085 32.4047C70.8781 21.4901 59.587 14 46.5226 14C28.008 14 13 29.0001 13 47.505C13 66.0099 28.008 81.01 46.5226 81.01C54.9684 81.01 62.6628 77.8658 68.5638 72.7089H61.5707C57.1625 75.3524 52.0229 76.8945 46.5226 76.8945V76.8845Z" fill="#2E6FF2"/>
<path d="M32.6367 33.4561V59.2207H37.1752V50.3989H49.5884C55.6998 50.3989 59.6572 47.0744 59.6572 41.9275C59.6572 36.7806 55.7098 33.4561 49.5884 33.4561H32.6367ZM55.0486 41.9275C55.0486 45.3521 51.9728 46.0631 49.388 46.0631H37.1752V37.7819H49.388C51.9728 37.7819 55.0486 38.5029 55.0486 41.9175V41.9275Z" fill="#2E6FF2"/>
<path d="M72.6013 52.5618L64.7367 38.8033H59.6672L70.1367 57.0879L64.7767 66.12H69.766L85.3652 38.8033H80.3558L72.6013 52.5618Z" fill="#2E6FF2"/>
</g>
<defs>
<clipPath id="clip0_1_84">
<rect width="546" height="67" fill="white" transform="translate(13 14)"/>
</clipPath>
</defs>
</svg>
