<svg width="20" height="20" viewBox="0 0 20 20" fill="none" xmlns="http://www.w3.org/2000/svg">
<path d="M5.53033 4.46967C5.23744 4.17678 4.76256 4.17678 4.46967 4.46967C4.17678 4.76256 4.17678 5.23744 4.46967 5.53033L8.93934 10L4.46967 14.4697C4.17678 14.7626 4.17678 15.2374 4.46967 15.5303C4.76256 15.8232 5.23744 15.8232 5.53033 15.5303L10 11.0607L14.3692 15.4298C14.6621 15.7227 15.1369 15.7227 15.4298 15.4298C15.7227 15.1369 15.7227 14.6621 15.4298 14.3692L11.0607 10L15.4298 5.63084C15.7227 5.33794 15.7227 4.86307 15.4298 4.57018C15.1369 4.27728 14.6621 4.27728 14.3692 4.57018L10 8.93934L5.53033 4.46967Z" fill="#8D9299"/>
</svg>
