<svg width="28" height="28" viewBox="0 0 28 28" fill="none" xmlns="http://www.w3.org/2000/svg">
<path d="M7 10.85C6.4201 10.85 5.95 11.3201 5.95 11.9C5.95 12.4799 6.4201 12.95 7 12.95L11.2 12.95C11.7799 12.95 12.25 12.4799 12.25 11.9C12.25 11.3201 11.7799 10.85 11.2 10.85L7 10.85Z" fill="white"/>
<path d="M5.95 16.1C5.95 15.5201 6.4201 15.05 7 15.05L11.2 15.05C11.7799 15.05 12.25 15.5201 12.25 16.1C12.25 16.6799 11.7799 17.15 11.2 17.15L7 17.15C6.4201 17.15 5.95 16.6799 5.95 16.1Z" fill="white"/>
<path d="M7 6.65C6.4201 6.65 5.95 7.1201 5.95 7.7C5.95 8.2799 6.4201 8.75 7 8.75L11.2 8.75C11.7799 8.75 12.25 8.2799 12.25 7.7C12.25 7.1201 11.7799 6.65 11.2 6.65L7 6.65Z" fill="white"/>
<path fill-rule="evenodd" clip-rule="evenodd" d="M4.2 1.75C2.8469 1.75 1.75 2.8469 1.75 4.2V23.8C1.75 25.1531 2.8469 26.25 4.2 26.25H18.9C20.2531 26.25 21.35 25.1531 21.35 23.8V21.6489L23.3304 22.6391C23.6559 22.8019 24.0425 22.7845 24.352 22.5932C24.6616 22.4019 24.85 22.0639 24.85 21.7V15.0343C25.7235 13.9987 26.25 12.6608 26.25 11.2C26.25 8.27218 24.1353 5.83828 21.35 5.34235V4.2C21.35 2.8469 20.2531 1.75 18.9 1.75H4.2ZM20.3 17.15C21.1734 17.15 22.0028 16.9618 22.75 16.6238V20.0011L20.7696 19.0109C20.474 18.8631 20.126 18.8631 19.8304 19.0109L17.85 20.0011V16.6238C18.5972 16.9618 19.4266 17.15 20.3 17.15ZM14.35 11.2C14.35 12.6608 14.8765 13.9987 15.75 15.0343V21.7C15.75 22.0639 15.9384 22.4019 16.248 22.5932C16.5575 22.7845 16.9441 22.8019 17.2696 22.6391L19.25 21.6489V23.8C19.25 23.9933 19.0933 24.15 18.9 24.15H4.2C4.0067 24.15 3.85 23.9933 3.85 23.8V4.2C3.85 4.0067 4.0067 3.85 4.2 3.85H18.9C19.0933 3.85 19.25 4.0067 19.25 4.2V5.34235C16.4647 5.83828 14.35 8.27218 14.35 11.2ZM20.3 7.35C18.1737 7.35 16.45 9.0737 16.45 11.2C16.45 13.3263 18.1737 15.05 20.3 15.05C22.4263 15.05 24.15 13.3263 24.15 11.2C24.15 9.0737 22.4263 7.35 20.3 7.35Z" fill="white"/>
</svg>
