<svg width="28" height="28" viewBox="0 0 28 28" fill="none" xmlns="http://www.w3.org/2000/svg">
<path fill-rule="evenodd" clip-rule="evenodd" d="M1.75 14C1.75 13.4201 2.2201 12.95 2.8 12.95L25.2 12.95C25.7799 12.95 26.25 13.4201 26.25 14C26.25 14.5799 25.7799 15.05 25.2 15.05L2.8 15.05C2.2201 15.05 1.75 14.5799 1.75 14Z" fill="white"/>
<path fill-rule="evenodd" clip-rule="evenodd" d="M1.75 7C1.75 6.4201 2.2201 5.95 2.8 5.94999L25.2 5.94999C25.7799 5.94999 26.25 6.42009 26.25 6.99999C26.25 7.57989 25.7799 8.04999 25.2 8.04999L2.8 8.05C2.2201 8.05 1.75 7.57989 1.75 7Z" fill="white"/>
<path fill-rule="evenodd" clip-rule="evenodd" d="M1.75 21C1.75 20.4201 2.2201 19.95 2.8 19.95L25.2 19.95C25.7799 19.95 26.25 20.4201 26.25 21C26.25 21.5799 25.7799 22.05 25.2 22.05L2.8 22.05C2.2201 22.05 1.75 21.5799 1.75 21Z" fill="white"/>
</svg>
