<svg width="40" height="40" viewBox="0 0 40 40" fill="none" xmlns="http://www.w3.org/2000/svg">
<path fill-rule="evenodd" clip-rule="evenodd" d="M25.4229 5.94129C27.4261 6.05314 29.3191 6.97986 30.7157 8.47805C32.0113 9.86783 33.0667 11.5871 33.1285 13.866C33.1609 15.0619 33.0015 16.074 32.6028 17.0153C32.2115 17.9393 31.6299 18.6968 30.9781 19.4249C30.9631 19.4417 30.9477 19.4581 30.9319 19.4742L27.3577 23.1217C27.3493 23.1303 27.3408 23.1388 27.3321 23.1472C26.4355 24.0192 25.6157 24.5098 24.6311 24.8509C23.6001 25.208 22.5 25.3207 21.4083 25.188C20.3173 25.0554 19.2623 24.6811 18.3123 24.0995C17.3626 23.518 16.5368 22.7411 15.8863 21.8242C15.4069 21.1486 15.566 20.2122 16.2417 19.7329C16.9173 19.2535 17.8537 19.4126 18.333 20.0883C18.7539 20.6815 19.2827 21.176 19.8788 21.541C20.4747 21.9058 21.1207 22.1309 21.7704 22.2099C22.4195 22.2888 23.0592 22.2205 23.6491 22.0161C24.1959 21.8267 24.6387 21.5793 25.2282 21.0086L28.7649 17.3993C29.3152 16.7819 29.64 16.3185 29.8404 15.8453C30.0361 15.3832 30.1532 14.8154 30.1296 13.9473C30.0945 12.6527 29.5236 11.5988 28.5213 10.5237C27.6201 9.55694 26.4397 9.00273 25.2557 8.93662C24.0817 8.87107 22.9759 9.28688 22.1579 10.0872L20.1172 12.1568C19.5356 12.7467 18.5858 12.7534 17.9959 12.1717C17.406 11.5901 17.3994 10.6403 17.981 10.0504L20.0304 7.97195L20.0468 7.95559C21.4765 6.5497 23.4134 5.82908 25.4229 5.94129Z" fill="white"/>
<path fill-rule="evenodd" clip-rule="evenodd" d="M13.8179 33.2996C11.8147 33.1878 9.92174 32.2611 8.52513 30.7629C7.22957 29.3731 6.17413 27.6538 6.11233 25.3749C6.0799 24.1791 6.23935 23.1669 6.63804 22.2256C7.02939 21.3016 7.61093 20.5441 8.26271 19.8161C8.27775 19.7992 8.29317 19.7828 8.30895 19.7667L11.8831 16.1192C11.8915 16.1106 11.9001 16.1021 11.9087 16.0937C12.8054 15.2217 13.6252 14.7311 14.6098 14.39C15.6408 14.0329 16.7408 13.9202 17.8325 14.0529C18.9236 14.1856 19.9785 14.5598 20.9285 15.1414C21.8782 15.7229 22.7041 16.4998 23.3546 17.4167C23.8339 18.0924 23.6748 19.0287 22.9991 19.508C22.3235 19.9874 21.3872 19.8283 20.9078 19.1526C20.4869 18.5594 19.9582 18.0649 19.362 17.6999C18.7662 17.3351 18.1201 17.11 17.4704 17.031C16.8214 16.9521 16.1816 17.0204 15.5918 17.2248C15.045 17.4142 14.6022 17.6616 14.0127 18.2323L10.4759 21.8416C9.92561 22.459 9.60088 22.9224 9.40049 23.3956C9.20477 23.8577 9.08768 24.4255 9.11122 25.2936C9.14633 26.5882 9.71729 27.6421 10.7195 28.7172C11.6207 29.684 12.8012 30.2382 13.9852 30.3043C15.1591 30.3698 16.2649 29.954 17.083 29.1537L19.1236 27.0841C19.7053 26.4942 20.655 26.4875 21.2449 27.0692C21.8348 27.6508 21.8415 28.6006 21.2598 29.1905L19.2104 31.269L19.194 31.2853C17.7643 32.6912 15.8275 33.4118 13.8179 33.2996Z" fill="white"/>
</svg>
