<svg width="40" height="40" viewBox="0 0 40 40" fill="none" xmlns="http://www.w3.org/2000/svg">
<path fill-rule="evenodd" clip-rule="evenodd" d="M20 6.5C20.8284 6.5 21.5 7.17157 21.5 8L21.5 22.2984L26.9232 16.7058C27.4999 16.1111 28.4495 16.0964 29.0442 16.6731C29.6389 17.2499 29.6536 18.1995 29.0769 18.7942L21.0769 27.0442C20.7943 27.3356 20.4058 27.5 20 27.5C19.5942 27.5 19.2057 27.3356 18.9232 27.0442L10.9232 18.7942C10.3464 18.1995 10.3611 17.2499 10.9558 16.6732C11.5505 16.0964 12.5001 16.1111 13.0769 16.7058L18.5 22.2984L18.5 8C18.5 7.17157 19.1716 6.5 20 6.5Z" fill="white"/>
<path fill-rule="evenodd" clip-rule="evenodd" d="M6.93934 34.0607C6.65804 33.7794 6.5 33.3978 6.5 33L6.5 29C6.5 28.1716 7.17157 27.5 8 27.5C8.82843 27.5 9.5 28.1716 9.5 29L9.5 31.5L30.5 31.5L30.5 29C30.5 28.1716 31.1716 27.5 32 27.5C32.8284 27.5 33.5 28.1716 33.5 29L33.5 33C33.5 33.8284 32.8284 34.5 32 34.5L8 34.5C7.60218 34.5 7.22064 34.342 6.93934 34.0607Z" fill="white"/>
</svg>
